<?xml version="1.0" encoding="UTF-8" standalone="no"?>
<!-- Created with Inkscape (http://www.inkscape.org/) -->

<svg
   width="356"
   height="256"
   viewBox="0 0 94.191667 67.733334"
   version="1.1"
   id="svg1"
   xml:space="preserve"
   xmlns="http://www.w3.org/2000/svg"
   xmlns:svg="http://www.w3.org/2000/svg"><defs
     id="defs1"><linearGradient
       id="SVGID_1_"
       gradientUnits="userSpaceOnUse"
       x1="360.87909"
       y1="351.45529"
       x2="141.213"
       y2="-69.293602"
       gradientTransform="matrix(0.3742854,0,0,-0.3742854,171.22615,245.72992)">
	<stop
   offset="0"
   style="stop-color:#00FFA3"
   id="stop1" />
	<stop
   offset="1"
   style="stop-color:#DC1FFF"
   id="stop2" />
</linearGradient><linearGradient
       id="SVGID_2_"
       gradientUnits="userSpaceOnUse"
       x1="264.8291"
       y1="401.60141"
       x2="45.162998"
       y2="-19.147499"
       gradientTransform="matrix(0.3742854,0,0,-0.3742854,171.22615,245.72992)">
	<stop
   offset="0"
   style="stop-color:#00FFA3"
   id="stop3" />
	<stop
   offset="1"
   style="stop-color:#DC1FFF"
   id="stop4" />
</linearGradient><linearGradient
       id="SVGID_3_"
       gradientUnits="userSpaceOnUse"
       x1="312.5484"
       y1="376.68799"
       x2="92.882202"
       y2="-44.061001"
       gradientTransform="matrix(0.3742854,0,0,-0.3742854,171.22615,245.72992)">
	<stop
   offset="0"
   style="stop-color:#00FFA3"
   id="stop5" />
	<stop
   offset="1"
   style="stop-color:#DC1FFF"
   id="stop6" />
</linearGradient></defs><g
     id="layer1"
     transform="translate(173.55414,-77.649998)"><path
       class="st1"
       d="m -101.61775,96.518572 h -23.22286 c -4.23332,0 -6.89426,4.596188 -4.83808,8.345718 l 14.27237,24.79523 c 0.96763,1.57239 3.26574,1.57239 4.23333,0 l 14.272408,-24.79523 c 2.177143,-3.74953 -0.48384,-8.345718 -4.717168,-8.345718 z m -13.66761,25.641908 -3.14478,-6.04762 -7.49901,-13.42572 c -0.48384,-0.84666 0.12114,-1.93523 1.2095,-1.93523 h 9.43429 z m 14.75621,-19.47334 -7.49907,13.42572 -3.14477,6.04762 v -21.40857 h 9.43428 c 1.0886,0 1.69335,1.08857 1.20956,1.93523 z"
       id="path2"
       style="fill:#ffffff;stroke-width:1.20952" /><g
       style="fill:none"
       id="g1"
       transform="matrix(0.27202142,0,0,0.27202142,-147.09581,77.649998)"><path
         d="M 0,19.671 C 0,12.9332 0,9.56425 1.26956,6.97276 2.48511,4.49151 4.49151,2.48511 6.97276,1.26956 9.56425,0 12.9332,0 19.671,0 h 209.658 c 6.738,0 10.107,0 12.698,1.26956 2.481,1.21555 4.488,3.22195 5.703,5.7032 C 249,9.56425 249,12.9332 249,19.671 v 209.658 c 0,6.738 0,10.107 -1.27,12.698 -1.215,2.481 -3.222,4.488 -5.703,5.703 -2.591,1.27 -5.96,1.27 -12.698,1.27 H 19.671 C 12.9332,249 9.56425,249 6.97276,247.73 4.49151,246.515 2.48511,244.508 1.26956,242.027 0,239.436 0,236.067 0,229.329 Z"
         fill="#0000ff"
         id="path1-1" /></g><g
       fill="none"
       fill-rule="evenodd"
       id="g7"
       transform="matrix(2.1166667,0,0,2.1166667,-173.55414,77.649997)"><circle
         cx="16"
         cy="16"
         r="16"
         fill="#627eea"
         id="circle1-1" /><g
         fill="#ffffff"
         fill-rule="nonzero"
         id="g6"><path
           fill-opacity="0.602"
           d="m 16.498,4 v 8.87 l 7.497,3.35 z"
           id="path1-13" /><path
           d="M 16.498,4 9,16.22 16.498,12.87 Z"
           id="path2-1" /><path
           fill-opacity="0.602"
           d="m 16.498,21.968 v 6.027 L 24,17.616 Z"
           id="path3" /><path
           d="M 16.498,27.995 V 21.967 L 9,17.616 Z"
           id="path4-1" /><path
           fill-opacity="0.2"
           d="M 16.498,20.573 23.995,16.22 16.498,12.872 Z"
           id="path5" /><path
           fill-opacity="0.602"
           d="m 9,16.22 7.498,4.353 v -7.701 z"
           id="path6-5" /></g></g></g></svg>
