<?xml version="1.0" encoding="UTF-8" standalone="no"?>
<!-- Created with Inkscape (http://www.inkscape.org/) -->

<svg
   width="356"
   height="256"
   viewBox="0 0 94.191667 67.733334"
   version="1.1"
   id="svg1"
   xml:space="preserve"
   xmlns="http://www.w3.org/2000/svg"
   xmlns:svg="http://www.w3.org/2000/svg"><defs
     id="defs1"><linearGradient
       id="SVGID_1_"
       gradientUnits="userSpaceOnUse"
       x1="360.87909"
       y1="351.45529"
       x2="141.213"
       y2="-69.293602"
       gradientTransform="matrix(0.3742854,0,0,-0.3742854,171.22615,245.72992)">
	<stop
   offset="0"
   style="stop-color:#00FFA3"
   id="stop1" />
	<stop
   offset="1"
   style="stop-color:#DC1FFF"
   id="stop2" />
</linearGradient><linearGradient
       id="SVGID_2_"
       gradientUnits="userSpaceOnUse"
       x1="264.8291"
       y1="401.60141"
       x2="45.162998"
       y2="-19.147499"
       gradientTransform="matrix(0.3742854,0,0,-0.3742854,171.22615,245.72992)">
	<stop
   offset="0"
   style="stop-color:#00FFA3"
   id="stop3" />
	<stop
   offset="1"
   style="stop-color:#DC1FFF"
   id="stop4" />
</linearGradient><linearGradient
       id="SVGID_3_"
       gradientUnits="userSpaceOnUse"
       x1="312.5484"
       y1="376.68799"
       x2="92.882202"
       y2="-44.061001"
       gradientTransform="matrix(0.3742854,0,0,-0.3742854,171.22615,245.72992)">
	<stop
   offset="0"
   style="stop-color:#00FFA3"
   id="stop5" />
	<stop
   offset="1"
   style="stop-color:#DC1FFF"
   id="stop6" />
</linearGradient></defs><g
     id="layer1"
     transform="translate(173.55414,-77.649998)"><g
       id="Light"
       transform="matrix(0.1467996,0,0,0.1467996,-171.91962,67.535504)">
	<g
   id="OneArt-_x2022_-Desktop-_x2022_-Light"
   transform="translate(-457,-1515)">
		<g
   id="Block"
   transform="translate(41,1263)">
			<g
   id="TVL"
   transform="translate(48,252)">
				<g
   id="Icons_x2F_Icon-24_x2F_cake"
   transform="translate(368)">
					<circle
   id="Oval"
   class="st0"
   cx="399.79999"
   cy="299.60001"
   r="230.7"
   style="clip-rule:evenodd;fill:#f3ba2f;fill-rule:evenodd" />
					<g
   id="Icons_x2F_icon-24_x2F_networks_x2F_binance_x5F_smart_x5F_chain"
   transform="translate(3.333333,3.333333)">
						<path
   id="Combined-Shape"
   class="st1"
   d="m 456.3,320.8 34.8,34.7 -94.6,94.5 -94.5,-94.5 34.8,-34.7 59.7,59.7 z m -59.8,-59.8 35.3,35.3 v 0 0 l -35.3,35.3 -35.2,-35.2 v -0.1 0 l 6.2,-6.2 3,-3 z m -119,0.5 34.8,34.8 -34.8,34.7 -34.8,-34.8 z m 238,0 34.8,34.8 -34.8,34.7 -34.8,-34.8 z M 396.5,142.5 491,237 456.2,271.8 396.5,212 336.8,271.7 302,237 Z"
   style="clip-rule:evenodd;fill:#131415;fill-rule:evenodd" />
					</g>
				</g>
			</g>
		</g>
	</g>
</g><g
       fill="none"
       fill-rule="evenodd"
       id="g7"
       transform="matrix(2.1166667,0,0,2.1166667,-173.55414,77.649997)"><circle
         cx="16"
         cy="16"
         r="16"
         fill="#627eea"
         id="circle1-1" /><g
         fill="#ffffff"
         fill-rule="nonzero"
         id="g6"><path
           fill-opacity="0.602"
           d="m 16.498,4 v 8.87 l 7.497,3.35 z"
           id="path1-13" /><path
           d="M 16.498,4 9,16.22 16.498,12.87 Z"
           id="path2-1" /><path
           fill-opacity="0.602"
           d="m 16.498,21.968 v 6.027 L 24,17.616 Z"
           id="path3" /><path
           d="M 16.498,27.995 V 21.967 L 9,17.616 Z"
           id="path4-1" /><path
           fill-opacity="0.2"
           d="M 16.498,20.573 23.995,16.22 16.498,12.872 Z"
           id="path5" /><path
           fill-opacity="0.602"
           d="m 9,16.22 7.498,4.353 v -7.701 z"
           id="path6-5" /></g></g></g></svg>
