<?xml version="1.0" encoding="UTF-8" standalone="no"?>
<!-- Created with Inkscape (http://www.inkscape.org/) -->

<svg
   width="356"
   height="256"
   viewBox="0 0 94.191667 67.733334"
   version="1.1"
   id="svg1"
   xml:space="preserve"
   xmlns="http://www.w3.org/2000/svg"
   xmlns:svg="http://www.w3.org/2000/svg"><defs
     id="defs1"><linearGradient
       id="SVGID_1_"
       gradientUnits="userSpaceOnUse"
       x1="360.87909"
       y1="351.45529"
       x2="141.213"
       y2="-69.293602"
       gradientTransform="matrix(0.3742854,0,0,-0.3742854,171.22615,245.72992)">
	<stop
   offset="0"
   style="stop-color:#00FFA3"
   id="stop1" />
	<stop
   offset="1"
   style="stop-color:#DC1FFF"
   id="stop2" />
</linearGradient><linearGradient
       id="SVGID_2_"
       gradientUnits="userSpaceOnUse"
       x1="264.8291"
       y1="401.60141"
       x2="45.162998"
       y2="-19.147499"
       gradientTransform="matrix(0.3742854,0,0,-0.3742854,171.22615,245.72992)">
	<stop
   offset="0"
   style="stop-color:#00FFA3"
   id="stop3" />
	<stop
   offset="1"
   style="stop-color:#DC1FFF"
   id="stop4" />
</linearGradient><linearGradient
       id="SVGID_3_"
       gradientUnits="userSpaceOnUse"
       x1="312.5484"
       y1="376.68799"
       x2="92.882202"
       y2="-44.061001"
       gradientTransform="matrix(0.3742854,0,0,-0.3742854,171.22615,245.72992)">
	<stop
   offset="0"
   style="stop-color:#00FFA3"
   id="stop5" />
	<stop
   offset="1"
   style="stop-color:#DC1FFF"
   id="stop6" />
</linearGradient></defs><g
     id="tron"
     transform="matrix(1.0583193,0,0,1.0583193,28.176538,8.9846378e-4)"><path
       class="cls-1"
       d="m 61.55,19.28 c -3,-2.77 -7.15,-7 -10.53,-10 L 50.82,9.14 A 3.82,3.82 0 0 0 49.71,8.52 v 0 C 41.56,7 3.63,-0.09 2.89,0 A 1.4,1.4 0 0 0 2.31,0.22 L 2.12,0.37 A 2.23,2.23 0 0 0 1.6,1.21 L 1.55,1.34 V 2.05 2.16 C 5.82,14.05 22.68,53 26,62.14 c 0.2,0.62 0.58,1.8 1.29,1.86 h 0.16 c 0.38,0 2,-2.14 2,-2.14 0,0 28.96,-35.12 31.89,-38.86 a 9.46,9.46 0 0 0 1,-1.48 2.41,2.41 0 0 0 -0.79,-2.24 z M 36.88,23.37 49.24,13.12 56.49,19.8 Z M 32.08,22.7 10.8,5.26 45.23,11.61 Z m 1.92,4.57 21.78,-3.51 -24.9,30 z M 7.91,7 30.3,26 27.06,53.78 Z"
       id="path1-5"
       style="fill:#ff060a" /></g><g
     id="layer1"
     transform="translate(100,-20.5)"><g
       style="fill:#000000"
       id="g2"
       transform="matrix(1.7501085,0,0,1.7501085,-205.35053,-54.410818)"><g
         id="SVGRepo_bgCarrier"
         stroke-width="0" /><g
         id="SVGRepo_tracerCarrier"
         stroke-linecap="round"
         stroke-linejoin="round" /><g
         id="SVGRepo_iconCarrier"
         transform="matrix(1.2094488,0,0,1.2094488,60.196574,42.803526)"><g
           fill="none"
           fill-rule="evenodd"
           id="g1"><circle
             cx="16"
             cy="16"
             r="16"
             fill="#26a17b"
             id="circle1-1" /><path
             fill="#ffffff"
             d="m 17.922,17.383 v -0.002 c -0.11,0.008 -0.677,0.042 -1.942,0.042 -1.01,0 -1.721,-0.03 -1.971,-0.042 v 0.003 c -3.888,-0.171 -6.79,-0.848 -6.79,-1.658 0,-0.809 2.902,-1.486 6.79,-1.66 v 2.644 c 0.254,0.018 0.982,0.061 1.988,0.061 1.207,0 1.812,-0.05 1.925,-0.06 v -2.643 c 3.88,0.173 6.775,0.85 6.775,1.658 0,0.81 -2.895,1.485 -6.775,1.657 m 0,-3.59 v -2.366 h 5.414 V 7.819 H 8.595 v 3.608 h 5.414 v 2.365 C 9.609,13.994 6.3,14.866 6.3,15.91 c 0,1.044 3.309,1.915 7.709,2.118 v 7.582 h 3.913 v -7.584 c 4.393,-0.202 7.694,-1.073 7.694,-2.116 0,-1.043 -3.301,-1.914 -7.694,-2.117"
             id="path1-4" /></g></g></g></g></svg>
