<?xml version="1.0" encoding="UTF-8" standalone="no"?>
<!-- Created with Inkscape (http://www.inkscape.org/) -->

<svg
   width="356"
   height="256"
   viewBox="0 0 94.191667 67.733334"
   version="1.1"
   id="svg1"
   xml:space="preserve"
   xmlns="http://www.w3.org/2000/svg"
   xmlns:svg="http://www.w3.org/2000/svg"><defs
     id="defs1"><linearGradient
       id="SVGID_1_"
       gradientUnits="userSpaceOnUse"
       x1="360.87909"
       y1="351.45529"
       x2="141.213"
       y2="-69.293602"
       gradientTransform="matrix(0.3742854,0,0,-0.3742854,171.22615,245.72992)">
	<stop
   offset="0"
   style="stop-color:#00FFA3"
   id="stop1" />
	<stop
   offset="1"
   style="stop-color:#DC1FFF"
   id="stop2" />
</linearGradient><linearGradient
       id="SVGID_2_"
       gradientUnits="userSpaceOnUse"
       x1="264.8291"
       y1="401.60141"
       x2="45.162998"
       y2="-19.147499"
       gradientTransform="matrix(0.3742854,0,0,-0.3742854,171.22615,245.72992)">
	<stop
   offset="0"
   style="stop-color:#00FFA3"
   id="stop3" />
	<stop
   offset="1"
   style="stop-color:#DC1FFF"
   id="stop4" />
</linearGradient><linearGradient
       id="SVGID_3_"
       gradientUnits="userSpaceOnUse"
       x1="312.5484"
       y1="376.68799"
       x2="92.882202"
       y2="-44.061001"
       gradientTransform="matrix(0.3742854,0,0,-0.3742854,171.22615,245.72992)">
	<stop
   offset="0"
   style="stop-color:#00FFA3"
   id="stop5" />
	<stop
   offset="1"
   style="stop-color:#DC1FFF"
   id="stop6" />
</linearGradient></defs><g
     id="layer1"
     transform="translate(173.55414,-77.649998)"><path
       class="st0"
       d="m -113.22918,145.38333 c 18.747615,0 33.866702,-15.11904 33.866702,-33.86666 0,-18.74762 -15.119087,-33.86667 -33.866702,-33.86667 -18.74761,0 -33.86665,15.11905 -33.86665,33.86667 0,18.74762 15.11904,33.86666 33.86665,33.86666 z"
       id="path1-5"
       style="fill:#0098ea;stroke-width:1.20952" /><path
       class="st1"
       d="m -101.61775,96.518572 h -23.22286 c -4.23332,0 -6.89426,4.596188 -4.83808,8.345718 l 14.27237,24.79523 c 0.96763,1.57239 3.26574,1.57239 4.23333,0 l 14.272408,-24.79523 c 2.177143,-3.74953 -0.48384,-8.345718 -4.717168,-8.345718 z m -13.66761,25.641908 -3.14478,-6.04762 -7.49901,-13.42572 c -0.48384,-0.84666 0.12114,-1.93523 1.2095,-1.93523 h 9.43429 z m 14.75621,-19.47334 -7.49907,13.42572 -3.14477,6.04762 v -21.40857 h 9.43428 c 1.0886,0 1.69335,1.08857 1.20956,1.93523 z"
       id="path2"
       style="fill:#ffffff;stroke-width:1.20952" /></g><g
     style="fill:#000000"
     id="g2"
     transform="matrix(1.7501085,0,0,1.7501085,-105.35053,-74.910818)"><g
       id="SVGRepo_bgCarrier"
       stroke-width="0" /><g
       id="SVGRepo_tracerCarrier"
       stroke-linecap="round"
       stroke-linejoin="round" /><g
       id="SVGRepo_iconCarrier"
       transform="matrix(1.2094488,0,0,1.2094488,60.196574,42.803526)"><g
         fill="none"
         fill-rule="evenodd"
         id="g1"><circle
           cx="16"
           cy="16"
           r="16"
           fill="#26a17b"
           id="circle1-1" /><path
           fill="#ffffff"
           d="m 17.922,17.383 v -0.002 c -0.11,0.008 -0.677,0.042 -1.942,0.042 -1.01,0 -1.721,-0.03 -1.971,-0.042 v 0.003 c -3.888,-0.171 -6.79,-0.848 -6.79,-1.658 0,-0.809 2.902,-1.486 6.79,-1.66 v 2.644 c 0.254,0.018 0.982,0.061 1.988,0.061 1.207,0 1.812,-0.05 1.925,-0.06 v -2.643 c 3.88,0.173 6.775,0.85 6.775,1.658 0,0.81 -2.895,1.485 -6.775,1.657 m 0,-3.59 v -2.366 h 5.414 V 7.819 H 8.595 v 3.608 h 5.414 v 2.365 C 9.609,13.994 6.3,14.866 6.3,15.91 c 0,1.044 3.309,1.915 7.709,2.118 v 7.582 h 3.913 v -7.584 c 4.393,-0.202 7.694,-1.073 7.694,-2.116 0,-1.043 -3.301,-1.914 -7.694,-2.117"
           id="path1-4" /></g></g></g></svg>
